<?xml version="1.0" encoding="utf-8"?>
<!-- Generator: Adobe Illustrator 16.0.4, SVG Export Plug-In . SVG Version: 6.00 Build 0)  -->
<!DOCTYPE svg PUBLIC "-//W3C//DTD SVG 1.1//EN" "http://www.w3.org/Graphics/SVG/1.1/DTD/svg11.dtd">
<svg version="1.1" id="Layer_1" xmlns="http://www.w3.org/2000/svg" xmlns:xlink="http://www.w3.org/1999/xlink" x="0px" y="0px"
	 width="265px" height="83.75px" viewBox="0 0 265 83.75" enable-background="new 0 0 265 83.75" xml:space="preserve">
<path fill="#525B5F" d="M46.4,41.236v-11.5c0-1.6-1.2-2.634-3.6-3.1c-1.789-0.248-3.595-0.349-5.4-0.3H27.3
	c-5.8,0-8.7,1.167-8.7,3.5v15h20.3c5,0,7.5-1.232,7.5-3.699 M53,41.137c0,6.133-4.7,9.199-14.1,9.199H18.6v6
	c0.104,0.664-0.115,1.336-0.59,1.811s-1.147,0.693-1.81,0.59h-1.7c-0.663,0.104-1.336-0.115-1.811-0.59
	C12.215,57.672,11.996,57,12.1,56.336V29.737c-0.175-3.361,1.91-6.428,5.1-7.5c2.2-0.867,5.466-1.333,9.8-1.4h10.4
	c10.4,0.067,15.6,3,15.6,8.8V41.137z"/>
<path fill="#525B5F" d="M74.4,24.037c0.104,0.663-0.115,1.336-0.59,1.81c-0.474,0.475-1.147,0.694-1.81,0.59h-3
	c-4.867,0-7.3,1.233-7.3,3.7v18c0.104,0.663-0.115,1.336-0.59,1.811s-1.147,0.693-1.811,0.59h-1.8
	c-0.673,0.068-1.34-0.178-1.809-0.666s-0.687-1.164-0.591-1.834v-18c0-3.333,1.633-5.8,4.9-7.4c2.925-1.294,6.104-1.909,9.3-1.8H72
	c0.673-0.068,1.34,0.177,1.809,0.666c0.469,0.488,0.687,1.165,0.591,1.834V24.037z"/>
<path fill="#525B5F" d="M109,33.237v-3.6c0-1.133-1.267-2-3.8-2.6c-1.67-0.405-3.382-0.606-5.1-0.6h-9.4c-6.534,0-9.8,1.167-9.8,3.5
	v3.4L109,33.237z M115.3,36.236c0,1.8-0.6,2.7-1.8,2.7H81.1c0,4.067,2.8,6.101,8.4,6.101h22.8c0.663-0.104,1.336,0.115,1.811,0.59
	c0.475,0.474,0.693,1.146,0.59,1.81v0.601c0.104,0.662-0.115,1.335-0.59,1.81s-1.147,0.694-1.811,0.59H90.2
	c-3.465,0.159-6.928-0.35-10.2-1.5c-3.8-1.533-5.7-4.101-5.7-7.7v-11c0-3.4,1.867-5.934,5.6-7.6c3.174-1.281,6.579-1.894,10-1.8
	h12.2c2.924-0.068,5.827,0.513,8.5,1.7c3.133,1.467,4.7,3.633,4.7,6.5V36.236z"/>
<path fill="#525B5F" d="M156.4,48.137c0,1.6-1,2.4-3,2.4h-21c-4.467,0-7.8-0.434-10-1.301c-3.285-1.039-5.46-4.158-5.3-7.6v-11.8
	c0-6,4.633-9,13.9-9h22.7c0.673-0.068,1.341,0.177,1.81,0.666c0.469,0.488,0.686,1.165,0.59,1.834v0.7
	c0.104,0.663-0.115,1.336-0.59,1.81c-0.475,0.475-1.146,0.694-1.81,0.59h-22.2c-1.643-0.048-3.287,0.086-4.9,0.4
	c-1.934,0.467-2.9,1.434-2.9,2.9v11.599c0,2.534,2.966,3.801,8.9,3.801H154c0.654-0.062,1.301,0.17,1.766,0.635
	c0.465,0.464,0.697,1.111,0.635,1.766V48.137z"/>
<path fill="#525B5F" d="M211.9,42.037c0,5.666-4.301,8.5-12.9,8.5h-22.1c-0.664,0.104-1.336-0.115-1.811-0.59
	s-0.693-1.147-0.59-1.811v-0.6c-0.104-0.664,0.115-1.336,0.59-1.811s1.146-0.693,1.811-0.59H199c4.066,0,6.1-1,6.1-3v-1.2
	c0-1.8-1.866-2.7-5.6-2.7h-10.6c-3.179,0.126-6.355-0.28-9.4-1.2c-3.467-1.267-5.2-3.567-5.2-6.9v-1.7c0-5.066,4.7-7.6,14.101-7.6
	h20c0.673-0.068,1.34,0.177,1.809,0.666c0.469,0.488,0.687,1.165,0.591,1.834v0.7c0.063,0.654-0.17,1.301-0.634,1.766
	c-0.465,0.464-1.112,0.697-1.766,0.634H184.1c-2.199,0.267-3.3,0.934-3.3,2v1.5c0,1.067,0.733,1.8,2.2,2.2
	c1.974,0.398,3.987,0.566,6,0.5h10.8c8.067,0,12.101,2.667,12.101,8V42.037z"/>
<path fill="#525B5F" d="M248.5,33.237v-3.6c0-1.133-1.267-2-3.8-2.6c-1.67-0.404-3.382-0.605-5.101-0.6h-9.5
	c-6.533,0-9.8,1.167-9.8,3.5v3.4L248.5,33.237z M254.8,36.236c0,1.8-0.6,2.7-1.8,2.7h-32.4c0,4.067,2.801,6.101,8.4,6.101h22.8
	c0.663-0.104,1.336,0.115,1.811,0.59c0.475,0.474,0.693,1.146,0.59,1.81v0.601c0.104,0.662-0.115,1.335-0.59,1.81
	s-1.147,0.694-1.811,0.59h-22.1c-3.472,0.128-6.935-0.415-10.2-1.601c-3.8-1.533-5.7-4.1-5.7-7.699v-10.9
	c0-3.4,1.866-5.934,5.601-7.6c3.174-1.281,6.578-1.894,10-1.8H241.6c2.924-0.068,5.827,0.513,8.5,1.7c3.134,1.467,4.7,3.633,4.7,6.5
	V36.236z"/>
<path fill="#525B5F" d="M160.1,22.836c5.041,8.13,7.32,17.67,6.5,27.201c0,0-1,3.6,1.5,2.299c0,0,4.7-6.799,1.5-28.799
	c0,0-0.3-2.7-4-2.5h-4c0,0-2.8-0.3-1.6,1.8"/>
<path fill="#E32826" d="M170.2,11.637c-0.409,3.306-3.219,5.789-6.55,5.789c-3.332,0-6.141-2.483-6.551-5.789
	c0.41-3.307,3.219-5.79,6.551-5.79C166.981,5.847,169.791,8.33,170.2,11.637"/>
<path fill="#525B5F" d="M13.8,71.637h5.6c0.951,0.067,1.906-0.068,2.8-0.4c0.494-0.331,0.763-0.908,0.7-1.5
	c0-0.934-0.233-1.533-0.7-1.8c-1.175-0.298-2.392-0.399-3.6-0.3h-4.8V71.637z M13.8,66.637h4.9c1.017,0.072,2.037-0.064,3-0.4
	c0.466-0.267,0.7-0.8,0.7-1.6c0-0.801-0.2-1.267-0.6-1.4c-0.836-0.277-1.722-0.38-2.6-0.3h-5.4V66.637z M12,72.637V61.836h7.2
	c1.321-0.119,2.652,0.052,3.9,0.5c0.684,0.555,1.026,1.43,0.9,2.301c0,1.199-0.7,1.967-2.1,2.3c1.733,0.267,2.6,1.101,2.6,2.5
	c0.099,0.919-0.278,1.823-1,2.399c-1.072,0.58-2.282,0.857-3.5,0.801H12z"/>
<path fill="#525B5F" d="M38.5,61.836h1.8v7.5c0.172,1.059-0.299,2.119-1.2,2.701c-0.8,0.399-2.534,0.6-5.2,0.6
	c-1.723,0.118-3.452-0.085-5.1-0.6c-0.912-0.43-1.439-1.402-1.3-2.4v-7.801h1.8v7.5c0,1,0.267,1.634,0.8,1.9
	c1.199,0.355,2.453,0.49,3.7,0.4c1.347,0.09,2.698-0.045,4-0.4c0.534-0.267,0.8-0.9,0.8-1.9L38.5,61.836z"/>
<path fill="#525B5F" d="M55.1,64.736h-1.8c0-0.866-0.233-1.434-0.7-1.699c-0.998-0.332-2.051-0.467-3.1-0.4
	c-1.241-0.082-2.488,0.02-3.7,0.3c-0.574,0.263-0.902,0.877-0.8,1.5c0,0.866,0.233,1.399,0.7,1.601
	c1.278,0.293,2.588,0.428,3.9,0.399c1.656-0.085,3.313,0.118,4.9,0.601c0.667,0.333,1,1.133,1,2.399s-0.4,2.134-1.2,2.601
	c-0.8,0.467-2.566,0.666-5.3,0.6c-1.591,0.111-3.188-0.092-4.7-0.6c-0.852-0.481-1.326-1.431-1.2-2.4v-0.5h1.8v0.3
	c0,0.934,0.233,1.533,0.7,1.8c1.101,0.332,2.252,0.467,3.4,0.4c1.313,0.076,2.63-0.059,3.9-0.4c0.467-0.267,0.7-0.9,0.7-1.9
	c0.057-0.488-0.13-0.975-0.5-1.299c-0.659-0.297-1.378-0.434-2.1-0.4h-3.7c-2.733-0.133-4.1-1.066-4.1-2.801
	c-0.142-0.998,0.332-1.984,1.2-2.5c1.544-0.516,3.176-0.719,4.8-0.6c1.624-0.114,3.254,0.09,4.8,0.6c0.83,0.543,1.261,1.523,1.1,2.5
	"/>
<rect x="58.1" y="61.836" fill="#525B5F" width="1.8" height="10.771"/>
<polygon fill="#525B5F" points="75.4,61.836 75.4,70.037 75.4,70.836 75.4,71.236 75.4,71.637 74.6,70.836 73.8,69.937 72.3,68.236 
	66.3,61.836 63.3,61.836 63.3,72.637 65.1,72.637 65.1,64.537 65.1,63.736 65.1,63.236 65.1,62.836 65.2,62.836 65.7,63.437 
	66.3,64.037 67.4,65.236 74.2,72.637 77.2,72.637 77.2,61.836 "/>
<polygon fill="#525B5F" points="80.3,61.836 80.3,72.637 90.8,72.637 90.8,71.537 82.1,71.537 82.1,67.537 90.4,67.537 90.4,66.537 
	82.1,66.537 82.1,62.836 90.8,62.836 90.8,61.836 "/>
<path fill="#525B5F" d="M105,64.736h-1.8c0-0.866-0.233-1.434-0.7-1.699c-0.998-0.332-2.051-0.467-3.1-0.4
	c-1.241-0.082-2.488,0.02-3.7,0.3c-0.575,0.263-0.902,0.877-0.8,1.5c0,0.866,0.233,1.399,0.7,1.601
	c1.278,0.293,2.588,0.428,3.9,0.399c1.656-0.085,3.314,0.118,4.9,0.601c0.667,0.333,1,1.133,1,2.399s-0.4,2.134-1.2,2.601
	c-0.8,0.467-2.567,0.666-5.3,0.6c-1.591,0.111-3.188-0.092-4.7-0.6c-0.816-0.467-1.285-1.365-1.2-2.301v-0.5h1.8v0.301
	c0,0.933,0.233,1.533,0.7,1.799c1.101,0.332,2.252,0.468,3.4,0.4c1.313,0.076,2.63-0.059,3.9-0.4c0.467-0.266,0.7-0.899,0.7-1.899
	c0.057-0.489-0.13-0.976-0.5-1.3c-0.659-0.297-1.378-0.434-2.1-0.4h-3.7c-2.733-0.133-4.1-1.066-4.1-2.8
	c-0.141-0.999,0.332-1.985,1.2-2.5c1.545-0.516,3.176-0.72,4.8-0.601c1.624-0.113,3.254,0.09,4.8,0.601
	C104.659,62.945,105.081,63.826,105,64.736"/>
<path fill="#525B5F" d="M119.6,64.736h-1.8c0-0.866-0.233-1.434-0.7-1.699c-0.998-0.332-2.051-0.467-3.1-0.4
	c-1.241-0.082-2.488,0.02-3.7,0.3c-0.574,0.263-0.902,0.877-0.8,1.5c0,0.866,0.233,1.399,0.7,1.601
	c1.278,0.293,2.588,0.428,3.9,0.399c1.656-0.085,3.313,0.118,4.9,0.601c0.667,0.333,1,1.133,1,2.399s-0.4,2.134-1.2,2.601
	c-0.8,0.467-2.566,0.666-5.3,0.6c-1.591,0.109-3.188-0.095-4.7-0.6c-0.852-0.481-1.326-1.431-1.2-2.4v-0.5h1.8v0.3
	c0,0.934,0.233,1.533,0.7,1.8c1.101,0.334,2.252,0.47,3.4,0.4c1.313,0.076,2.63-0.059,3.9-0.4c0.467-0.267,0.7-0.9,0.7-1.9
	c0.057-0.488-0.13-0.975-0.5-1.299c-0.659-0.297-1.378-0.434-2.1-0.4h-3.6c-2.733-0.133-4.1-1.066-4.1-2.801
	c-0.141-0.998,0.333-1.984,1.2-2.5c1.544-0.516,3.176-0.719,4.8-0.6c1.624-0.114,3.254,0.09,4.8,0.6c0.83,0.543,1.261,1.523,1.1,2.5
	"/>
<path fill="#525B5F" d="M142.3,64.736h-1.8c0-0.866-0.233-1.434-0.7-1.699c-0.998-0.332-2.05-0.467-3.1-0.4
	c-1.241-0.082-2.488,0.02-3.7,0.3c-0.574,0.263-0.902,0.877-0.8,1.5c0,0.866,0.233,1.399,0.7,1.601
	c1.279,0.292,2.588,0.426,3.9,0.399c1.622-0.074,3.246,0.129,4.8,0.601c0.667,0.333,1,1.133,1,2.399s-0.399,2.134-1.199,2.601
	c-0.801,0.467-2.566,0.666-5.301,0.6c-1.59,0.111-3.188-0.092-4.7-0.6c-0.852-0.481-1.326-1.431-1.2-2.4v-0.5h1.8v0.3
	c0,0.934,0.233,1.533,0.7,1.8c1.101,0.332,2.252,0.467,3.399,0.4c1.313,0.076,2.63-0.059,3.9-0.4c0.467-0.267,0.7-0.9,0.7-1.9
	c0.057-0.488-0.13-0.975-0.5-1.299c-0.66-0.293-1.379-0.43-2.101-0.4H134.4c-2.734-0.133-4.101-1.066-4.101-2.801
	c-0.141-0.998,0.333-1.984,1.2-2.5c1.544-0.516,3.176-0.719,4.8-0.6c1.624-0.114,3.255,0.09,4.8,0.6
	c0.83,0.543,1.262,1.523,1.101,2.5"/>
<path fill="#525B5F" d="M151.9,62.736c-2.601,0-4.101,0.2-4.5,0.6c-0.4,0.4-0.634,1.701-0.7,3.9c0,2.2,0.233,3.5,0.7,3.9
	s1.967,0.6,4.5,0.6c2.6,0,4.1-0.199,4.5-0.6c0.399-0.4,0.633-1.7,0.699-3.9v-1.699c0-1.201-0.3-1.967-0.899-2.301
	C154.811,62.799,153.352,62.629,151.9,62.736 M151.7,61.736c3.066,0,5,0.301,5.8,0.9s1.2,2.1,1.2,4.5c0,2.533-0.366,4.1-1.101,4.699
	c-0.732,0.601-2.666,0.9-5.8,0.9s-5.066-0.3-5.8-0.9c-0.733-0.6-1.1-2.133-1.1-4.6v-1.8c-0.116-1.178,0.471-2.313,1.5-2.899
	c1-0.533,2.833-0.801,5.5-0.801"/>
<polygon fill="#525B5F" points="161.5,61.836 161.5,72.637 171.7,72.637 171.7,71.437 163.3,71.437 163.3,61.836 "/>
<path fill="#525B5F" d="M185,61.836h1.8v7.5c0.172,1.059-0.3,2.119-1.2,2.701c-0.866,0.399-2.6,0.6-5.199,0.6
	c-1.723,0.118-3.452-0.085-5.101-0.6c-0.912-0.43-1.439-1.402-1.3-2.4v-7.801h1.8v7.5c0,1,0.267,1.634,0.8,1.9
	c1.199,0.355,2.453,0.49,3.7,0.4c1.347,0.09,2.698-0.045,4-0.4c0.534-0.267,0.8-0.9,0.8-1.9L185,61.836z"/>
<polygon fill="#525B5F" points="189.2,61.836 189.2,62.937 194.6,62.937 194.6,72.637 196.4,72.637 196.4,62.937 201.7,62.937 
	201.7,61.836 "/>
<rect x="204.1" y="61.836" fill="#525B5F" width="1.801" height="10.771"/>
<path fill="#525B5F" d="M215.9,62.736c-2.601,0-4.101,0.2-4.5,0.6c-0.4,0.4-0.634,1.701-0.7,3.9c0,2.2,0.233,3.5,0.7,3.9
	s1.967,0.6,4.5,0.6c2.6,0,4.1-0.199,4.5-0.6c0.399-0.4,0.633-1.7,0.699-3.9v-1.699c0-1.201-0.3-1.967-0.899-2.301
	C218.811,62.799,217.352,62.629,215.9,62.736 M215.7,61.736c3.066,0,5,0.301,5.8,0.9s1.2,2.1,1.2,4.5c0,2.533-0.366,4.1-1.101,4.699
	c-0.732,0.601-2.666,0.9-5.8,0.9s-5.066-0.3-5.8-0.9c-0.733-0.6-1.1-2.133-1.1-4.6v-1.8c-0.116-1.178,0.471-2.313,1.5-2.899
	c1-0.533,2.833-0.801,5.5-0.801"/>
<polygon fill="#525B5F" points="237.5,61.836 237.5,70.037 237.5,70.836 237.5,71.236 237.5,71.637 236.7,70.836 235.9,69.937 
	234.4,68.236 228.4,61.836 225.4,61.836 225.4,72.637 227.3,72.637 227.3,64.537 227.3,63.736 227.2,63.236 227.2,62.836 
	227.3,62.836 227.8,63.437 228.4,64.037 229.5,65.236 236.3,72.637 239.4,72.637 239.4,61.836 "/>
<path fill="#525B5F" d="M254.1,64.736h-1.8c0-0.866-0.233-1.434-0.7-1.699c-0.998-0.332-2.051-0.467-3.1-0.4
	c-1.241-0.082-2.488,0.02-3.7,0.3c-0.574,0.263-0.901,0.877-0.8,1.5c0,0.866,0.233,1.399,0.7,1.601
	c1.278,0.293,2.589,0.428,3.899,0.399c1.656-0.085,3.314,0.118,4.9,0.601c0.666,0.333,1,1.133,1,2.399s-0.4,2.134-1.2,2.601
	s-2.566,0.666-5.3,0.6c-1.591,0.111-3.188-0.092-4.7-0.6c-0.852-0.481-1.326-1.431-1.2-2.4v-0.5h1.801v0.3
	c0,0.934,0.232,1.533,0.699,1.8c1.102,0.334,2.252,0.47,3.4,0.4c1.312,0.076,2.63-0.059,3.9-0.4c0.467-0.267,0.699-0.9,0.699-1.9
	c0.057-0.488-0.13-0.975-0.5-1.299c-0.658-0.297-1.378-0.434-2.1-0.4h-3.7c-2.733-0.133-4.1-1.066-4.1-2.801
	c-0.142-0.998,0.332-1.984,1.2-2.5c1.544-0.516,3.176-0.719,4.8-0.6c1.624-0.114,3.254,0.09,4.8,0.6c0.83,0.543,1.262,1.523,1.1,2.5
	"/>
</svg>
